<svg width="25" height="24" viewBox="0 0 25 24" fill="none" xmlns="http://www.w3.org/2000/svg">
<path fill-rule="evenodd" clip-rule="evenodd" d="M16.9697 16.4697C17.2626 16.1768 17.7374 16.1768 18.0303 16.4697L22.0303 20.4697C22.3232 20.7626 22.3232 21.2374 22.0303 21.5303C21.7374 21.8232 21.2626 21.8232 20.9697 21.5303L16.9697 17.5303C16.6768 17.2374 16.6768 16.7626 16.9697 16.4697Z" fill="#2F2B43" fill-opacity="0.4"/>
<path fill-rule="evenodd" clip-rule="evenodd" d="M11.5 3.75C7.49594 3.75 4.25 6.99594 4.25 11C4.25 15.0041 7.49594 18.25 11.5 18.25C13.5057 18.25 15.32 17.4365 16.6333 16.1197C17.9421 14.8074 18.75 12.9988 18.75 11C18.75 6.99594 15.5041 3.75 11.5 3.75ZM2.75 11C2.75 6.16751 6.66751 2.25 11.5 2.25C16.3325 2.25 20.25 6.16751 20.25 11C20.25 13.4118 19.2732 15.597 17.6954 17.179C16.1121 18.7664 13.9202 19.75 11.5 19.75C6.66751 19.75 2.75 15.8325 2.75 11Z" fill="#2F2B43" fill-opacity="0.4"/>
</svg>
