<svg width="25" height="24" viewBox="0 0 25 24" fill="none" xmlns="http://www.w3.org/2000/svg">
<path d="M10.9901 2.23006L6.00015 4.10005C4.85015 4.53005 3.91016 5.89004 3.91016 7.12004V14.55C3.91016 15.73 4.69017 17.28 5.64017 17.99L9.94016 21.2001C11.3502 22.2601 13.6701 22.2601 15.0801 21.2001L19.3802 17.99C20.3302 17.28 21.1101 15.73 21.1101 14.55V7.12004C21.1101 5.89004 20.1701 4.53005 19.0201 4.10005L14.0302 2.23006C13.1802 1.92006 11.8201 1.92006 10.9901 2.23006Z" stroke="#292D32" stroke-width="1.5" stroke-linecap="round" stroke-linejoin="round"/>
<path d="M12.4997 10.9199C12.4597 10.9199 12.4097 10.9199 12.3697 10.9199C11.4297 10.8899 10.6797 10.1099 10.6797 9.15991C10.6797 8.18991 11.4697 7.3999 12.4397 7.3999C13.4097 7.3999 14.1997 8.18991 14.1997 9.15991C14.1897 10.1199 13.4397 10.8899 12.4997 10.9199Z" stroke="#292D32" stroke-width="1.5" stroke-linecap="round" stroke-linejoin="round"/>
<path d="M10.5091 13.7199C9.54906 14.3599 9.54906 15.4099 10.5091 16.0498C11.5991 16.7799 13.3891 16.7799 14.4791 16.0498C15.4391 15.4099 15.4391 14.3599 14.4791 13.7199C13.3991 12.9899 11.6091 12.9899 10.5091 13.7199Z" stroke="#292D32" stroke-width="1.5" stroke-linecap="round" stroke-linejoin="round"/>
</svg>
